<?xml version="1.0" encoding="UTF-8"?>
<svg id="Layer_2" data-name="Layer 2" xmlns="http://www.w3.org/2000/svg" viewBox="0 0 620.1 196.5">
  <defs>
    <style>
      .cls-1 {
        font-family: CenturyGothic-Bold, 'Century Gothic';
        font-size: 92px;
        font-weight: 700;
      }

      .cls-1, .cls-2 {
        fill: #313970;
      }

      .cls-3 {
        fill: #414042;
        font-family: CenturyGothic, 'Century Gothic';
        font-size: 34px;
      }

      .cls-4 {
        fill: #6b74db;
      }

      .cls-4, .cls-2 {
        stroke-width: 0px;
      }
    </style>
  </defs>
  <g id="Layer_2-2" data-name="Layer 2">
    <path class="cls-2" d="m67.03,41.42c-2.83-1.61-3.96-4.94-1.14-6.54h0c2.81-1.59,7.59.46,10.42,2.05l32.45,17.68c2.29,1.3,5.66.78,7.88-.53l21.76-11.92c2.18-1.28,1.84-4.92-.42-6.19L73.82,1.2c-2.25-1.27-4.62-1.7-6.86-.47L2.19,35.83c-2.37,1.31-2.63,5.09-.33,6.4l64.27,35.89c2.33,1.32,6.16.93,8.47-.42l25.73-15.04c2.26-1.32,1.26-2.74-1.04-4.04l-32.27-17.2Z"/>
    <path class="cls-2" d="m93.25,90.23c0,.87-.61,1.65-1.47,1.8-7.54,1.31-18.07,11.74-23.24,9.47-4.64-2.04-20.47-12.01-33.66-14.43-3.12-.57-5.37-3.29-5.37-6.46v-14.69c4.52.99,28.73,18.85,39.25,20.4,3.67.54,15.2-8.01,21.91-9.35,1.54-.31,2.98.87,2.96,2.44-.06,5.25-.33,5.05-.37,10.82Z"/>
    <path class="cls-2" d="m66.56,196.5c-7.41-4.31-14.98-8.3-23.36-10.52-14.4-3.81-27.07-6.08-39.93-10.31-1.78-.59-3-2.24-3-4.12C.25,145.92.03,120.23,0,94.59c0-2.63,2.36-4.8,4.94-4.26,9.77,2.02,22.89,4.06,36.42,7.28,4.48,1.07,16.47,5.53,23.72,10.82,1.85,1.35,1.65,1.97,1.65,4.27l-.17,83.81Z"/>
    <path class="cls-4" d="m73.93,196.5c7.41-4.31,14.98-8.3,23.36-10.52,14.4-3.81,27.07-6.08,39.93-10.31,1.78-.59,3-2.24,3-4.12.02-25.64.24-51.33.27-76.97,0-2.63-2.36-4.8-4.94-4.26-9.77,2.02-22.89,4.06-36.42,7.28-4.48,1.07-16.47,5.53-23.72,10.82-1.85,1.35-1.65,1.97-1.65,4.27l.17,83.81Z"/>
    <path class="cls-2" d="m121.73,108.2l-7.11-19.43c2.09-1.07,3.51-3.11,3.51-5.46,0-2.6-1.73-4.83-4.19-5.77v-25.11h-5.12v25.08c-2.52.92-4.3,3.17-4.3,5.81,0,2.16,1.19,4.06,3.01,5.19l-7.21,19.71c-.39,1.06.4,2.18,1.52,2.18h18.39c1.13,0,1.91-1.12,1.52-2.18Z"/>
    <text class="cls-1" transform="translate(167.31 126.3)"><tspan x="0" y="0">Gyanghar</tspan></text>
    <text class="cls-3" transform="translate(180.07 184.22)"><tspan x="0" y="0">Your Gateway to Learning</tspan></text>
  </g>
</svg>